<!DOCTYPE svg PUBLIC "-//W3C//DTD SVG 20010904//EN" "http://www.w3.org/TR/2001/REC-SVG-20010904/DTD/svg10.dtd">
<svg version="1.0" xmlns="http://www.w3.org/2000/svg" width="1300px" height="974px" viewBox="0 0 13000 9740" preserveAspectRatio="xMidYMid meet">
	<g id="layer101" fill="#060606" stroke="none">
		<path d="M1489 8676 c-74 -16 -124 -51 -152 -106 -19 -38 -22 -61 -22 -150 l0 -105 485 -965 c419 -833 488 -966 510 -971 33 -9 8348 -9 8380 -1 22 6 92 140 510 972 l485 965 0 105 c0 90 -3 112 -23 153 -29 57 -81 91 -166 106 -91 17 -9931 14 -10007 -3z m6229 -452 c12 -4 25 -16 27 -28 3 -11 -8 -97 -24 -190 -24 -143 -32 -173 -51 -188 -21 -17 -79 -18 -1170 -18 -1097 0 -1149 1 -1170 18 -20 16 -27 43 -51 192 -16 96 -26 182 -23 192 5 17 64 18 1207 21 661 1 1209 3 1217 4 8 2 25 0 38 -3z m3225 -610 c3 -3 -104 -226 -239 -495 l-244 -489 -128 0 c-4390 -2 -7787 1 -7793 7 -15 16 -479 953 -479 968 0 13 469 15 4438 15 2441 0 4441 -3 4445 -6z" />
		<path d="M2140 7587 c-14 -7 -26 -20 -28 -29 -2 -10 22 -66 53 -127 47 -92 61 -111 87 -120 39 -14 477 -15 513 -1 14 5 28 17 31 25 8 19 -71 213 -97 240 -18 19 -35 20 -277 23 -195 2 -263 -1 -282 -11z" />
		<path d="M2782 7590 c-12 -5 -25 -16 -28 -25 -4 -8 15 -67 41 -130 45 -109 50 -116 84 -126 22 -6 123 -9 268 -7 296 4 282 -6 230 152 -21 63 -45 120 -54 128 -19 16 -504 23 -541 8z" />
		<path d="M3412 7590 c-12 -5 -25 -17 -29 -26 -9 -23 57 -221 80 -242 17 -15 49 -17 256 -20 240 -3 286 2 298 34 6 17 -21 148 -44 206 -10 26 -24 40 -45 47 -38 13 -483 14 -516 1z" />
		<path d="M4034 7590 c-34 -13 -35 -32 -8 -142 36 -151 18 -142 302 -146 243 -3 286 2 299 34 7 18 -12 158 -28 211 -7 22 -19 35 -41 42 -37 13 -493 14 -524 1z" />
		<path d="M4662 7590 c-12 -5 -25 -16 -28 -24 -3 -8 2 -61 11 -118 24 -152 5 -142 298 -146 184 -2 248 1 267 11 24 13 25 16 24 112 -2 114 -13 151 -49 165 -33 13 -492 12 -523 0z" />
		<path d="M5292 7590 c-34 -14 -41 -46 -31 -145 10 -102 26 -132 71 -140 18 -3 557 -4 1196 -3 l1164 3 18 23 c19 23 29 81 33 179 4 97 132 88 -1231 90 -707 1 -1206 -2 -1220 -7z" />
		<path d="M7812 7590 c-33 -14 -44 -53 -46 -165 -1 -96 0 -99 24 -112 19 -10 83 -13 267 -11 294 4 275 -6 299 151 24 152 44 141 -269 144 -139 1 -262 -2 -275 -7z" />
		<path d="M8438 7589 c-17 -7 -30 -22 -37 -42 -16 -53 -35 -193 -28 -211 13 -32 56 -37 299 -34 222 3 239 4 257 23 22 22 73 217 64 242 -3 8 -17 19 -30 24 -32 12 -491 10 -525 -2z" />
		<path d="M9072 7593 c-12 -2 -29 -14 -36 -26 -19 -31 -61 -211 -53 -231 13 -32 56 -37 298 -34 207 3 239 5 256 20 23 21 89 219 80 242 -4 9 -18 21 -32 26 -25 10 -465 12 -513 3z" />
		<path d="M9705 7593 c-35 -9 -44 -23 -82 -139 -52 -159 -70 -149 252 -149 242 0 255 1 273 20 27 28 106 221 99 240 -4 8 -18 20 -32 25 -26 10 -471 12 -510 3z" />
		<path d="M10334 7593 c-12 -2 -29 -12 -37 -21 -24 -27 -100 -220 -93 -237 3 -8 17 -20 31 -25 29 -11 475 -12 515 -1 19 5 38 31 82 116 32 61 57 119 55 130 -4 40 -39 45 -292 43 -132 0 -250 -3 -261 -5z" />
		<path d="M2302 7270 c-12 -5 -25 -17 -29 -26 -8 -22 104 -242 131 -257 13 -7 103 -13 236 -15 179 -4 221 -2 253 11 49 21 48 40 -9 171 -39 90 -50 106 -76 115 -38 13 -473 14 -506 1z" />
		<path d="M2920 7267 c-14 -7 -26 -22 -28 -33 -4 -28 65 -199 94 -233 l22 -26 241 0 c304 0 288 -9 240 144 -53 170 -25 156 -306 159 -180 2 -244 -1 -263 -11z" />
		<path d="M3525 7271 c-23 -5 -31 -12 -33 -34 -3 -27 38 -166 64 -219 22 -43 66 -50 290 -46 271 4 273 5 234 159 -28 107 -38 126 -73 139 -32 11 -430 12 -482 1z" />
		<path d="M4120 7267 c-16 -8 -26 -23 -28 -41 -4 -33 34 -197 52 -221 19 -27 82 -35 279 -35 234 0 257 7 257 74 0 66 -28 198 -45 216 -21 21 -476 28 -515 7z" />
		<path d="M4722 7270 c-12 -5 -26 -20 -31 -33 -12 -30 23 -226 44 -247 13 -12 54 -16 232 -19 245 -4 289 3 299 46 12 45 -11 222 -30 241 -15 15 -46 17 -254 19 -130 1 -247 -2 -260 -7z" />
		<path d="M5322 7270 c-12 -5 -27 -21 -32 -35 -11 -29 -4 -162 12 -212 14 -49 48 -55 300 -51 270 4 254 -7 252 155 -2 91 -5 119 -18 131 -13 14 -52 16 -253 19 -140 2 -247 -1 -261 -7z" />
		<path d="M5922 7270 c-34 -14 -43 -53 -39 -162 3 -75 7 -103 20 -115 15 -15 48 -17 281 -17 242 -1 267 1 283 17 15 15 18 36 18 132 0 96 -3 117 -18 132 -16 16 -43 18 -270 20 -139 1 -262 -2 -275 -7z" />
		<path d="M6552 7270 c-34 -14 -44 -55 -40 -162 5 -142 -17 -133 304 -132 226 0 267 2 280 16 12 12 16 41 17 131 2 99 -1 119 -16 134 -16 16 -42 18 -270 20 -139 1 -262 -2 -275 -7z" />
		<path d="M7182 7269 c-32 -12 -39 -41 -38 -156 2 -147 -16 -138 269 -138 305 0 295 -6 300 192 3 112 13 108 -271 109 -131 0 -248 -3 -260 -7z" />
		<path d="M7782 7270 c-33 -14 -42 -49 -45 -168 -2 -104 -2 -106 23 -119 39 -20 483 -14 505 7 21 21 56 217 44 247 -5 13 -20 28 -34 33 -33 12 -462 12 -493 0z" />
		<path d="M8393 7273 c-12 -2 -26 -10 -33 -17 -14 -17 -40 -155 -40 -212 0 -65 12 -68 234 -72 210 -4 269 1 295 27 21 21 64 186 59 227 -5 49 -30 54 -273 52 -121 0 -230 -3 -242 -5z" />
		<path d="M8993 7273 c-33 -7 -43 -25 -69 -125 -33 -131 -32 -146 13 -164 30 -13 76 -15 254 -12 203 3 220 4 238 23 20 21 81 195 81 231 0 45 -18 49 -264 50 -127 1 -241 0 -253 -3z" />
		<path d="M9590 7269 c-32 -13 -34 -16 -75 -141 -54 -159 -55 -157 200 -157 202 0 290 12 311 44 26 40 85 197 82 218 -6 41 -39 47 -273 46 -121 0 -231 -5 -245 -10z" />
		<path d="M10188 7269 c-21 -8 -35 -31 -72 -115 -50 -113 -54 -135 -31 -158 25 -24 69 -28 292 -24 165 2 214 6 227 17 24 20 128 229 124 249 -7 36 -45 42 -283 41 -126 0 -242 -5 -257 -10z" />
		<path d="M2462 6950 c-12 -5 -25 -17 -29 -26 -6 -17 99 -235 124 -256 12 -10 72 -13 240 -14 230 0 265 5 271 39 4 22 -85 232 -106 249 -19 16 -464 23 -500 8z" />
		<path d="M3042 6944 c-30 -21 -27 -41 24 -162 58 -136 36 -127 304 -127 292 0 278 -9 225 147 -21 62 -46 122 -57 133 -17 19 -34 20 -246 23 -199 2 -230 1 -250 -14z" />
		<path d="M3609 6941 l-24 -19 24 -73 c50 -157 60 -177 93 -188 45 -16 416 -14 448 2 32 16 35 42 15 125 -28 119 -43 149 -77 161 -18 7 -117 11 -243 11 -194 0 -215 -2 -236 -19z" />
		<path d="M4192 6944 c-28 -19 -28 -50 -1 -160 35 -137 17 -129 288 -129 288 0 272 -9 248 141 -19 120 -28 141 -63 154 -14 6 -121 10 -237 10 -176 0 -216 -3 -235 -16z" />
		<path d="M4762 6944 c-15 -10 -22 -25 -22 -47 0 -36 25 -183 35 -209 13 -32 71 -40 282 -36 250 4 239 -2 235 131 -3 112 -16 155 -49 168 -13 5 -122 9 -241 9 -181 0 -221 -3 -240 -16z" />
		<path d="M5332 6944 c-18 -12 -22 -25 -22 -67 1 -82 19 -190 36 -207 12 -12 53 -15 244 -15 284 0 265 -11 265 151 0 163 16 154 -274 154 -189 0 -230 -3 -249 -16z" />
		<path d="M5908 6940 c-22 -17 -23 -26 -23 -134 0 -97 3 -118 18 -133 16 -16 42 -18 282 -18 240 0 266 2 282 18 15 15 18 36 18 133 0 164 20 154 -301 153 -230 0 -256 -2 -276 -19z" />
		<path d="M6539 6941 c-23 -18 -24 -25 -24 -135 0 -97 3 -118 18 -133 16 -16 42 -18 282 -18 240 0 266 2 282 18 15 15 18 36 18 133 0 163 20 152 -299 153 -236 1 -255 0 -277 -18z" />
		<path d="M7169 6941 c-23 -18 -24 -25 -24 -135 0 -162 -19 -151 265 -151 192 0 232 2 245 15 17 18 38 154 33 220 -5 67 -14 70 -274 70 -204 0 -224 -2 -245 -19z" />
		<path d="M7752 6950 c-32 -13 -41 -45 -44 -159 -4 -142 -16 -135 235 -139 211 -4 269 4 282 36 10 26 35 173 35 209 0 59 -17 63 -265 62 -121 0 -230 -4 -243 -9z" />
		<path d="M8333 6950 c-32 -13 -41 -37 -60 -154 -24 -150 -40 -141 248 -141 272 0 254 -8 288 132 42 176 47 173 -239 172 -118 0 -225 -4 -237 -9z" />
		<path d="M8908 6949 c-30 -11 -46 -46 -72 -155 -21 -88 -18 -115 14 -131 32 -16 403 -18 448 -2 33 11 43 31 93 188 l24 73 -24 19 c-21 17 -41 19 -240 18 -119 0 -228 -5 -243 -10z" />
		<path d="M9485 6950 c-12 -4 -26 -14 -32 -21 -16 -21 -73 -200 -73 -232 0 -44 30 -49 267 -45 249 4 230 -5 288 133 46 110 49 144 15 162 -29 15 -430 18 -465 3z" />
		<path d="M10062 6953 c-13 -3 -31 -17 -40 -33 -32 -52 -95 -219 -89 -235 11 -28 50 -33 273 -31 171 1 225 4 238 15 25 21 126 238 119 256 -3 9 -17 21 -30 26 -24 9 -425 11 -471 2z" />
		<path d="M2312 6260 c-12 -5 -27 -21 -32 -35 -6 -16 -9 -917 -7 -2447 2 -2238 3 -2427 19 -2472 40 -115 119 -196 229 -233 52 -17 201 -18 3989 -18 l3935 0 69 34 c123 60 187 150 206 291 6 49 9 891 7 2462 -2 2277 -3 2388 -20 2405 -17 17 -200 18 -4195 20 -2452 1 -4186 -2 -4200 -7z m8025 -373 c4 -5 4 -4439 0 -4443 -5 -5 -7668 -6 -7673 -1 -4 3 -5 833 -4 3029 l0 1418 2198 2 c2354 3 5474 0 5479 -5z" />
	</g>
	<g id="layer102" fill="transparent" stroke="none">
		<path d="M0 4870 l0 -4870 6500 0 6500 0 0 4870 0 4870 -6500 0 -6500 0 0 -4870z m11569 3731 c46 -33 62 -79 63 -180 l1 -86 -476 -952 -477 -953 -4180 0 -4180 0 -475 950 -475 950 0 92 c0 116 16 153 80 186 l44 22 5021 -2 5020 -3 34 -24z m-902 -4833 l-2 -2443 -27 -50 c-34 -65 -80 -108 -148 -139 l-55 -26 -3932 0 c-3902 0 -3933 0 -3985 20 -61 23 -124 82 -159 150 l-24 45 -3 2357 -2 2358 25 21 c27 25 25 40 -5 32 -18 -5 -20 0 -20 56 l0 61 4170 0 4170 0 -3 -2442z" />
		<path d="M5263 8273 c-31 -6 -63 -49 -63 -84 0 -38 49 -335 59 -362 14 -34 56 -68 98 -78 50 -11 2236 -11 2287 0 43 11 92 52 100 86 13 53 56 321 56 351 0 20 -9 44 -24 61 l-24 28 -1234 1 c-678 1 -1243 -1 -1255 -3z" />
		<path d="M2055 7669 c-34 -10 -55 -34 -55 -61 0 -30 478 -981 505 -1005 14 -12 44 -24 67 -28 24 -3 930 -7 2013 -8 1570 -2 1969 -5 1968 -14 -4 -18 22 -16 37 2 11 14 228 15 1919 15 1210 0 1918 3 1939 9 19 6 41 16 49 23 8 6 73 127 144 268 70 140 135 266 143 280 42 72 216 446 216 465 0 12 -9 30 -21 41 -21 19 -110 19 -4458 21 -2592 1 -4448 -2 -4466 -8z m613 -141 c13 -17 62 -138 62 -155 0 -10 -46 -13 -235 -13 l-235 0 -40 80 c-22 44 -40 84 -40 90 0 16 475 14 488 -2z m654 -68 c15 -41 27 -81 27 -87 1 -10 -52 -13 -233 -13 l-234 0 -31 78 c-17 42 -31 83 -31 90 0 10 51 12 238 10 l237 -3 27 -75z m458 66 c0 -25 16 -27 43 -6 14 11 40 20 61 20 34 0 36 -2 51 -52 8 -29 18 -70 22 -90 l6 -38 -145 0 c-97 0 -148 4 -156 12 -9 9 -18 9 -37 0 -14 -7 -50 -12 -80 -12 l-53 0 -26 78 c-14 42 -26 83 -26 90 0 9 41 12 170 12 141 0 170 -2 170 -14z m783 -68 c8 -46 13 -86 11 -90 -8 -13 -462 -10 -470 3 -6 11 -43 147 -44 162 0 4 110 7 244 7 l244 0 15 -82z m611 60 c3 -13 7 -53 11 -91 l6 -67 -238 2 -238 3 -12 55 c-6 30 -12 70 -12 88 l-1 32 240 0 240 0 4 -22z m296 12 c13 -7 21 -7 25 0 4 7 351 10 1014 10 l1009 0 5 -22 6 -22 24 22 c18 17 35 22 81 22 l57 0 -7 -82 c-3 -46 -8 -86 -11 -90 -7 -12 -1977 -10 -2009 2 -19 8 -30 8 -38 0 -12 -12 -292 -14 -299 -2 -3 4 -8 44 -11 90 l-7 82 71 0 c39 0 80 -5 90 -10z m2839 -22 c0 -18 -6 -58 -12 -88 l-12 -55 -238 -3 -238 -2 6 67 c4 38 8 78 11 91 l4 22 240 0 240 0 -1 -32z m631 25 c-1 -15 -38 -151 -44 -162 -8 -13 -462 -16 -470 -3 -2 4 3 44 11 90 l15 82 244 0 c134 0 244 -3 244 -7z m620 -5 c0 -7 -12 -48 -26 -90 l-26 -78 -234 0 c-208 0 -234 2 -234 16 0 15 25 121 35 152 6 18 485 18 485 0z m620 0 c0 -7 -14 -48 -32 -90 l-32 -78 -233 0 c-128 0 -233 4 -233 8 0 11 47 149 55 162 10 16 475 13 475 -2z m640 2 c0 -6 -18 -46 -40 -90 l-40 -80 -235 0 c-189 0 -235 3 -235 13 0 17 49 138 62 155 13 16 488 18 488 2z m-7984 -394 c19 -44 34 -85 34 -93 0 -10 -42 -13 -214 -13 l-215 0 -24 33 c-28 36 -77 131 -77 147 0 7 74 10 231 8 l230 -3 35 -79z m572 52 c2 -15 -4 -38 -14 -52 -17 -27 -14 -29 22 -27 16 2 25 -6 33 -30 6 -17 8 -35 5 -40 -3 -5 -27 -9 -54 -9 -36 0 -52 5 -59 18 -9 16 -11 16 -43 -1 -28 -15 -54 -17 -153 -15 l-120 3 -32 65 c-17 36 -35 77 -38 93 l-7 27 228 -2 229 -3 3 -27z m608 -25 c9 -32 17 -74 18 -93 l1 -35 -211 -3 c-161 -2 -214 1 -221 10 -13 17 -53 137 -53 160 0 17 15 18 225 18 l224 0 17 -57z m588 40 c6 -21 26 -142 26 -160 0 -10 -49 -13 -212 -13 -117 0 -218 4 -225 8 -9 6 -53 152 -53 176 0 3 103 6 229 6 210 0 230 -1 235 -17z m600 -20 c3 -21 6 -64 6 -95 l0 -58 -214 0 c-159 0 -216 3 -223 13 -9 12 -33 127 -33 161 0 14 24 16 229 16 l228 0 7 -37z m584 25 c7 -7 12 -44 12 -95 l0 -83 -219 0 c-121 0 -222 4 -225 8 -2 4 -8 47 -12 95 l-7 87 220 0 c157 0 222 -3 231 -12z m642 -83 l0 -95 -204 0 c-212 0 -266 9 -280 45 -3 9 -6 46 -6 81 l0 64 245 0 245 0 0 -95z m630 23 c0 -40 -4 -78 -8 -84 -19 -29 -55 -34 -266 -34 l-216 0 0 95 0 95 245 0 245 0 0 -72z m596 -15 c-4 -48 -10 -91 -12 -95 -3 -4 -104 -8 -225 -8 l-219 0 0 49 c0 26 3 69 6 95 l7 46 225 0 225 0 -7 -87z m604 69 c0 -20 -18 -127 -26 -154 -5 -16 -24 -18 -225 -18 l-219 0 0 58 c0 31 3 74 6 95 l7 37 228 0 c215 0 229 -1 229 -18z m595 -12 c-4 -17 -14 -58 -23 -93 l-17 -62 -214 -3 c-118 -1 -218 1 -223 6 -8 8 4 120 18 165 5 16 25 17 235 17 l231 0 -7 -30z m595 12 c0 -23 -40 -143 -53 -159 -7 -10 -64 -13 -223 -13 -211 0 -214 0 -214 21 0 18 23 121 35 157 3 9 58 12 230 12 210 0 225 -1 225 -18z m600 7 c0 -6 -14 -44 -31 -85 -22 -54 -38 -78 -55 -84 -28 -11 -424 -12 -424 -1 0 7 41 129 55 164 7 15 27 17 231 17 152 0 224 -3 224 -11z m610 -1 c-1 -7 -20 -49 -43 -93 l-42 -80 -222 -3 c-185 -2 -223 0 -223 12 0 7 12 40 26 72 14 33 30 69 35 82 8 22 9 22 239 22 177 0 230 -3 230 -12z m-7700 -372 c40 -88 40 -113 -2 -121 -18 -3 -109 -5 -203 -3 l-170 3 -42 80 c-23 44 -42 85 -43 91 0 8 64 12 215 13 l216 2 29 -65z m180 50 c0 -25 16 -27 43 -6 23 18 41 20 175 20 l150 0 26 -78 c41 -122 57 -112 -173 -112 -147 0 -201 3 -208 13 -6 6 -18 35 -28 62 -10 28 -25 59 -32 70 -21 31 -16 45 17 45 19 0 30 -5 30 -14z m954 -38 c29 -104 34 -127 28 -132 -3 -3 -96 -6 -208 -6 -183 0 -203 2 -209 18 -15 36 -55 156 -55 164 0 4 97 8 215 8 l214 0 15 -52z m573 -8 c6 -30 12 -72 12 -93 l1 -37 -207 2 -208 3 -17 62 c-9 35 -19 76 -23 93 l-7 30 219 -2 218 -3 12 -55z m563 33 c0 -16 3 -58 7 -95 l6 -68 -211 0 -211 0 -6 38 c-4 20 -11 59 -16 85 -5 26 -9 52 -9 57 0 6 88 10 220 10 l220 0 0 -27z m570 -68 l0 -95 -209 0 -208 0 -7 38 c-3 20 -6 63 -6 95 l0 57 215 0 215 0 0 -95z m630 0 l0 -95 -51 0 c-28 0 -60 5 -71 11 -14 8 -23 8 -31 0 -7 -7 -69 -11 -174 -11 l-163 0 0 94 0 94 245 1 245 1 0 -95z m630 0 l0 -95 -245 1 -245 1 0 94 0 94 245 0 245 0 0 -95z m570 38 c0 -32 -3 -75 -6 -95 l-7 -38 -208 0 -209 0 0 95 0 95 215 0 215 0 0 -57z m580 47 c0 -5 -4 -31 -9 -57 -5 -26 -12 -65 -16 -85 l-6 -38 -209 0 -210 0 0 28 c0 15 3 57 7 95 l6 67 218 0 c132 0 219 -4 219 -10z m565 -20 c-4 -17 -14 -58 -23 -93 l-17 -62 -208 -3 -207 -2 0 28 c0 31 19 143 27 155 2 4 101 7 219 7 l216 0 -7 -30z m575 22 c0 -8 -40 -128 -55 -164 -6 -16 -26 -18 -209 -18 -112 0 -205 3 -208 6 -6 5 -1 28 28 132 l15 52 214 0 c118 0 215 -4 215 -8z m570 0 c0 -8 -61 -151 -73 -169 -6 -10 -59 -13 -208 -13 -230 0 -214 -10 -173 112 l26 78 214 0 c118 0 214 -3 214 -8z m579 1 c0 -5 -19 -46 -42 -93 l-42 -85 -208 -3 -209 -2 7 32 c4 18 20 61 36 96 l28 62 215 0 c119 0 216 -3 215 -7z" />
		<path d="M3711 7446 c-7 -8 -8 -17 -3 -20 6 -3 15 1 21 8 7 8 8 17 3 20 -6 3 -15 -1 -21 -8z" />
		<path d="M6510 6495 c0 -8 5 -15 10 -15 6 0 10 7 10 15 0 8 -4 15 -10 15 -5 0 -10 -7 -10 -15z" />
		<path d="M2751 6486 c-7 -8 -8 -17 -3 -20 6 -3 15 1 21 8 7 8 8 17 3 20 -6 3 -15 -1 -21 -8z" />
		<path d="M2431 6166 c-7 -8 -8 -17 -3 -20 6 -3 15 1 21 8 7 8 8 17 3 20 -6 3 -15 -1 -21 -8z" />
		<path d="M2642 5940 c-12 -5 -27 -21 -32 -36 -7 -17 -9 -798 -8 -2254 3 -2125 4 -2230 21 -2247 17 -17 185 -18 3877 -18 3692 0 3860 1 3877 18 17 17 18 121 18 2262 0 2141 -1 2245 -18 2262 -17 17 -186 18 -3865 20 -2298 1 -3856 -2 -3870 -7z" />
	</g>

</svg>